<svg xmlns="http://www.w3.org/2000/svg" xmlns:xlink="http://www.w3.org/1999/xlink" width="500" zoomAndPan="magnify" viewBox="0 0 375 74.999997" height="100" preserveAspectRatio="xMidYMid meet" version="1.0"><defs><g/><clipPath id="c2b1cb5d74"><path d="M 335.816406 13.976562 L 373.386719 13.976562 L 373.386719 60 L 335.816406 60 Z M 335.816406 13.976562 " clip-rule="nonzero"/></clipPath></defs><g fill="#f02d36" fill-opacity="1"><g transform="translate(-2.164604, 58.077975)"><g><path d="M 21.203125 -34.5625 C 24.421875 -34.5625 27.335938 -33.796875 29.953125 -32.265625 C 32.566406 -30.742188 34.632812 -28.65625 36.15625 -26 C 37.6875 -23.34375 38.453125 -20.382812 38.453125 -17.125 L 38.453125 -3.140625 C 38.453125 -2.210938 38.148438 -1.445312 37.546875 -0.84375 C 36.941406 -0.238281 36.175781 0.0625 35.25 0.0625 C 34.332031 0.0625 33.570312 -0.238281 32.96875 -0.84375 C 32.363281 -1.445312 32.0625 -2.210938 32.0625 -3.140625 L 32.0625 -5.453125 C 30.59375 -3.660156 28.8125 -2.257812 26.71875 -1.25 C 24.632812 -0.25 22.378906 0.25 19.953125 0.25 C 16.941406 0.25 14.210938 -0.5 11.765625 -2 C 9.316406 -3.507812 7.390625 -5.59375 5.984375 -8.25 C 4.585938 -10.90625 3.890625 -13.863281 3.890625 -17.125 C 3.890625 -20.382812 4.640625 -23.34375 6.140625 -26 C 7.648438 -28.65625 9.734375 -30.742188 12.390625 -32.265625 C 15.046875 -33.796875 17.984375 -34.5625 21.203125 -34.5625 Z M 21.203125 -5.390625 C 23.296875 -5.390625 25.1875 -5.898438 26.875 -6.921875 C 28.570312 -7.953125 29.898438 -9.351562 30.859375 -11.125 C 31.828125 -12.90625 32.3125 -14.90625 32.3125 -17.125 C 32.3125 -19.34375 31.828125 -21.347656 30.859375 -23.140625 C 29.898438 -24.941406 28.570312 -26.351562 26.875 -27.375 C 25.1875 -28.40625 23.296875 -28.921875 21.203125 -28.921875 C 19.109375 -28.921875 17.210938 -28.40625 15.515625 -27.375 C 13.828125 -26.351562 12.488281 -24.941406 11.5 -23.140625 C 10.519531 -21.347656 10.03125 -19.34375 10.03125 -17.125 C 10.03125 -14.90625 10.519531 -12.90625 11.5 -11.125 C 12.488281 -9.351562 13.828125 -7.953125 15.515625 -6.921875 C 17.210938 -5.898438 19.109375 -5.390625 21.203125 -5.390625 Z M 21.203125 -5.390625 "/></g></g></g><g fill="#f02d36" fill-opacity="1"><g transform="translate(35.778169, 58.077975)"><g><path d="M 21.203125 0.25 C 17.898438 0.25 14.929688 -0.5 12.296875 -2 C 9.660156 -3.507812 7.597656 -5.59375 6.109375 -8.25 C 4.628906 -10.90625 3.890625 -13.863281 3.890625 -17.125 C 3.890625 -20.46875 4.609375 -23.46875 6.046875 -26.125 C 7.492188 -28.78125 9.515625 -30.847656 12.109375 -32.328125 C 14.703125 -33.816406 17.628906 -34.5625 20.890625 -34.5625 C 25.828125 -34.5625 29.925781 -32.679688 33.1875 -28.921875 C 33.601562 -28.460938 33.8125 -27.921875 33.8125 -27.296875 C 33.8125 -26.367188 33.351562 -25.59375 32.4375 -24.96875 C 32.019531 -24.675781 31.535156 -24.53125 30.984375 -24.53125 C 30.023438 -24.53125 29.210938 -24.90625 28.546875 -25.65625 C 27.492188 -26.789062 26.351562 -27.617188 25.125 -28.140625 C 23.894531 -28.660156 22.484375 -28.921875 20.890625 -28.921875 C 17.671875 -28.921875 15.054688 -27.84375 13.046875 -25.6875 C 11.035156 -23.53125 10.03125 -20.675781 10.03125 -17.125 C 10.03125 -14.863281 10.5 -12.84375 11.4375 -11.0625 C 12.382812 -9.289062 13.703125 -7.898438 15.390625 -6.890625 C 17.085938 -5.890625 19.023438 -5.390625 21.203125 -5.390625 C 24.046875 -5.390625 26.347656 -6.125 28.109375 -7.59375 C 28.898438 -8.175781 29.671875 -8.46875 30.421875 -8.46875 C 31.003906 -8.46875 31.550781 -8.28125 32.0625 -7.90625 C 32.851562 -7.238281 33.25 -6.484375 33.25 -5.640625 C 33.25 -5.015625 33 -4.453125 32.5 -3.953125 C 29.488281 -1.148438 25.722656 0.25 21.203125 0.25 Z M 21.203125 0.25 "/></g></g></g><g fill="#f02d36" fill-opacity="1"><g transform="translate(69.07976, 58.077975)"><g><path d="M 22.703125 -34.625 C 25.585938 -34.625 28.179688 -33.992188 30.484375 -32.734375 C 32.785156 -31.484375 34.582031 -29.65625 35.875 -27.25 C 37.175781 -24.851562 37.828125 -21.957031 37.828125 -18.5625 L 37.828125 -3.140625 C 37.828125 -2.210938 37.523438 -1.445312 36.921875 -0.84375 C 36.316406 -0.238281 35.550781 0.0625 34.625 0.0625 C 33.707031 0.0625 32.945312 -0.238281 32.34375 -0.84375 C 31.738281 -1.445312 31.4375 -2.210938 31.4375 -3.140625 L 31.4375 -18.5625 C 31.4375 -21.957031 30.523438 -24.519531 28.703125 -26.25 C 26.878906 -27.988281 24.460938 -28.859375 21.453125 -28.859375 C 19.691406 -28.859375 18.085938 -28.5 16.640625 -27.78125 C 15.203125 -27.070312 14.078125 -26.113281 13.265625 -24.90625 C 12.453125 -23.695312 12.046875 -22.335938 12.046875 -20.828125 L 12.046875 -3.140625 C 12.046875 -2.210938 11.75 -1.445312 11.15625 -0.84375 C 10.570312 -0.238281 9.800781 0.0625 8.84375 0.0625 C 7.925781 0.0625 7.160156 -0.238281 6.546875 -0.84375 C 5.941406 -1.445312 5.640625 -2.210938 5.640625 -3.140625 L 5.640625 -45.796875 C 5.640625 -46.753906 5.941406 -47.523438 6.546875 -48.109375 C 7.160156 -48.703125 7.925781 -49 8.84375 -49 C 9.800781 -49 10.570312 -48.703125 11.15625 -48.109375 C 11.75 -47.523438 12.046875 -46.753906 12.046875 -45.796875 L 12.046875 -30.421875 C 13.378906 -31.765625 14.96875 -32.800781 16.8125 -33.53125 C 18.65625 -34.257812 20.617188 -34.625 22.703125 -34.625 Z M 22.703125 -34.625 "/></g></g></g><g fill="#f02d36" fill-opacity="1"><g transform="translate(107.524278, 58.077975)"><g><path d="M 36.453125 -17.6875 C 36.453125 -16.894531 36.175781 -16.238281 35.625 -15.71875 C 35.082031 -15.195312 34.394531 -14.9375 33.5625 -14.9375 L 9.71875 -14.9375 C 10.175781 -12.007812 11.503906 -9.644531 13.703125 -7.84375 C 15.898438 -6.039062 18.585938 -5.140625 21.765625 -5.140625 C 23.023438 -5.140625 24.332031 -5.367188 25.6875 -5.828125 C 27.050781 -6.296875 28.171875 -6.863281 29.046875 -7.53125 C 29.628906 -7.988281 30.316406 -8.21875 31.109375 -8.21875 C 31.910156 -8.21875 32.539062 -8.007812 33 -7.59375 C 33.75 -6.96875 34.125 -6.253906 34.125 -5.453125 C 34.125 -4.703125 33.789062 -4.078125 33.125 -3.578125 C 31.695312 -2.441406 29.925781 -1.519531 27.8125 -0.8125 C 25.707031 -0.101562 23.691406 0.25 21.765625 0.25 C 18.335938 0.25 15.265625 -0.488281 12.546875 -1.96875 C 9.828125 -3.457031 7.703125 -5.519531 6.171875 -8.15625 C 4.648438 -10.789062 3.890625 -13.78125 3.890625 -17.125 C 3.890625 -20.46875 4.609375 -23.46875 6.046875 -26.125 C 7.492188 -28.78125 9.503906 -30.847656 12.078125 -32.328125 C 14.648438 -33.816406 17.566406 -34.5625 20.828125 -34.5625 C 24.046875 -34.5625 26.828125 -33.847656 29.171875 -32.421875 C 31.515625 -31.003906 33.3125 -29.019531 34.5625 -26.46875 C 35.820312 -23.914062 36.453125 -20.988281 36.453125 -17.6875 Z M 20.828125 -29.171875 C 17.773438 -29.171875 15.296875 -28.332031 13.390625 -26.65625 C 11.492188 -24.988281 10.289062 -22.753906 9.78125 -19.953125 L 30.671875 -19.953125 C 30.296875 -22.753906 29.25 -24.988281 27.53125 -26.65625 C 25.820312 -28.332031 23.585938 -29.171875 20.828125 -29.171875 Z M 20.828125 -29.171875 "/></g></g></g><g fill="#f02d36" fill-opacity="1"><g transform="translate(142.08023, 58.077975)"><g><path d="M 9.46875 0 C 8.550781 0 7.785156 -0.300781 7.171875 -0.90625 C 6.566406 -1.507812 6.265625 -2.273438 6.265625 -3.203125 L 6.265625 -31.109375 C 6.265625 -32.078125 6.566406 -32.851562 7.171875 -33.4375 C 7.785156 -34.019531 8.550781 -34.3125 9.46875 -34.3125 C 10.4375 -34.3125 11.210938 -34.019531 11.796875 -33.4375 C 12.378906 -32.851562 12.671875 -32.078125 12.671875 -31.109375 L 12.671875 -3.203125 C 12.671875 -2.273438 12.378906 -1.507812 11.796875 -0.90625 C 11.210938 -0.300781 10.4375 0 9.46875 0 Z M 9.484375 -39.90625 C 8.347656 -39.90625 7.375 -40.3125 6.5625 -41.125 C 5.75 -41.9375 5.34375 -42.910156 5.34375 -44.046875 C 5.34375 -45.171875 5.75 -46.140625 6.5625 -46.953125 C 7.375 -47.773438 8.347656 -48.1875 9.484375 -48.1875 C 10.609375 -48.1875 11.578125 -47.773438 12.390625 -46.953125 C 13.210938 -46.140625 13.625 -45.171875 13.625 -44.046875 C 13.625 -42.910156 13.210938 -41.9375 12.390625 -41.125 C 11.578125 -40.3125 10.609375 -39.90625 9.484375 -39.90625 Z M 9.484375 -39.90625 "/></g></g></g><g fill="#f02d36" fill-opacity="1"><g transform="translate(156.628977, 58.077975)"><g><path d="M 22.890625 -34.5625 C 26.117188 -34.5625 29.0625 -33.796875 31.71875 -32.265625 C 34.375 -30.742188 36.453125 -28.65625 37.953125 -26 C 39.460938 -23.34375 40.21875 -20.382812 40.21875 -17.125 C 40.21875 -13.863281 39.515625 -10.90625 38.109375 -8.25 C 36.710938 -5.59375 34.789062 -3.507812 32.34375 -2 C 29.894531 -0.5 27.164062 0.25 24.15625 0.25 C 21.726562 0.25 19.46875 -0.25 17.375 -1.25 C 15.28125 -2.257812 13.503906 -3.660156 12.046875 -5.453125 L 12.046875 11.484375 C 12.046875 12.441406 11.75 13.210938 11.15625 13.796875 C 10.570312 14.390625 9.800781 14.6875 8.84375 14.6875 C 7.925781 14.6875 7.160156 14.390625 6.546875 13.796875 C 5.941406 13.210938 5.640625 12.441406 5.640625 11.484375 L 5.640625 -17.125 C 5.640625 -20.382812 6.398438 -23.34375 7.921875 -26 C 9.453125 -28.65625 11.523438 -30.742188 14.140625 -32.265625 C 16.753906 -33.796875 19.671875 -34.5625 22.890625 -34.5625 Z M 22.890625 -5.390625 C 24.984375 -5.390625 26.875 -5.898438 28.5625 -6.921875 C 30.257812 -7.953125 31.597656 -9.351562 32.578125 -11.125 C 33.566406 -12.90625 34.0625 -14.90625 34.0625 -17.125 C 34.0625 -19.34375 33.566406 -21.347656 32.578125 -23.140625 C 31.597656 -24.941406 30.257812 -26.351562 28.5625 -27.375 C 26.875 -28.40625 24.984375 -28.921875 22.890625 -28.921875 C 20.804688 -28.921875 18.914062 -28.40625 17.21875 -27.375 C 15.53125 -26.351562 14.203125 -24.941406 13.234375 -23.140625 C 12.273438 -21.347656 11.796875 -19.34375 11.796875 -17.125 C 11.796875 -14.90625 12.273438 -12.90625 13.234375 -11.125 C 14.203125 -9.351562 15.53125 -7.953125 17.21875 -6.921875 C 18.914062 -5.898438 20.804688 -5.390625 22.890625 -5.390625 Z M 22.890625 -5.390625 "/></g></g></g><g fill="#f02d36" fill-opacity="1"><g transform="translate(196.327865, 58.077975)"><g><path d="M 21.203125 0.25 C 17.859375 0.25 14.867188 -0.488281 12.234375 -1.96875 C 9.597656 -3.457031 7.546875 -5.519531 6.078125 -8.15625 C 4.617188 -10.789062 3.890625 -13.78125 3.890625 -17.125 C 3.890625 -20.507812 4.617188 -23.519531 6.078125 -26.15625 C 7.546875 -28.789062 9.597656 -30.847656 12.234375 -32.328125 C 14.867188 -33.816406 17.859375 -34.5625 21.203125 -34.5625 C 24.503906 -34.5625 27.460938 -33.816406 30.078125 -32.328125 C 32.691406 -30.847656 34.738281 -28.789062 36.21875 -26.15625 C 37.707031 -23.519531 38.453125 -20.507812 38.453125 -17.125 C 38.453125 -13.78125 37.71875 -10.789062 36.25 -8.15625 C 34.789062 -5.519531 32.753906 -3.457031 30.140625 -1.96875 C 27.523438 -0.488281 24.546875 0.25 21.203125 0.25 Z M 21.203125 -5.390625 C 23.335938 -5.390625 25.25 -5.890625 26.9375 -6.890625 C 28.632812 -7.898438 29.953125 -9.289062 30.890625 -11.0625 C 31.835938 -12.84375 32.3125 -14.863281 32.3125 -17.125 C 32.3125 -19.382812 31.835938 -21.410156 30.890625 -23.203125 C 29.953125 -25.003906 28.632812 -26.40625 26.9375 -27.40625 C 25.25 -28.414062 23.335938 -28.921875 21.203125 -28.921875 C 19.066406 -28.921875 17.148438 -28.414062 15.453125 -27.40625 C 13.765625 -26.40625 12.4375 -25.003906 11.46875 -23.203125 C 10.507812 -21.410156 10.03125 -19.382812 10.03125 -17.125 C 10.03125 -14.863281 10.507812 -12.84375 11.46875 -11.0625 C 12.4375 -9.289062 13.765625 -7.898438 15.453125 -6.890625 C 17.148438 -5.890625 19.066406 -5.390625 21.203125 -5.390625 Z M 21.203125 -5.390625 "/></g></g></g><g fill="#f02d36" fill-opacity="1"><g transform="translate(234.270646, 58.077975)"><g><path d="M 22.703125 -34.625 C 25.585938 -34.625 28.179688 -33.992188 30.484375 -32.734375 C 32.785156 -31.484375 34.582031 -29.65625 35.875 -27.25 C 37.175781 -24.851562 37.828125 -21.957031 37.828125 -18.5625 L 37.828125 -3.140625 C 37.828125 -2.210938 37.523438 -1.445312 36.921875 -0.84375 C 36.316406 -0.238281 35.550781 0.0625 34.625 0.0625 C 33.707031 0.0625 32.945312 -0.238281 32.34375 -0.84375 C 31.738281 -1.445312 31.4375 -2.210938 31.4375 -3.140625 L 31.4375 -18.5625 C 31.4375 -21.957031 30.523438 -24.519531 28.703125 -26.25 C 26.878906 -27.988281 24.460938 -28.859375 21.453125 -28.859375 C 19.691406 -28.859375 18.085938 -28.5 16.640625 -27.78125 C 15.203125 -27.070312 14.078125 -26.113281 13.265625 -24.90625 C 12.453125 -23.695312 12.046875 -22.335938 12.046875 -20.828125 L 12.046875 -3.140625 C 12.046875 -2.210938 11.75 -1.445312 11.15625 -0.84375 C 10.570312 -0.238281 9.800781 0.0625 8.84375 0.0625 C 7.925781 0.0625 7.160156 -0.238281 6.546875 -0.84375 C 5.941406 -1.445312 5.640625 -2.210938 5.640625 -3.140625 L 5.640625 -31.109375 C 5.640625 -32.078125 5.941406 -32.851562 6.546875 -33.4375 C 7.160156 -34.019531 7.925781 -34.3125 8.84375 -34.3125 C 9.800781 -34.3125 10.570312 -34.019531 11.15625 -33.4375 C 11.75 -32.851562 12.046875 -32.078125 12.046875 -31.109375 L 12.046875 -30.421875 C 13.378906 -31.765625 14.96875 -32.800781 16.8125 -33.53125 C 18.65625 -34.257812 20.617188 -34.625 22.703125 -34.625 Z M 22.703125 -34.625 "/></g></g></g><g fill="#f02d36" fill-opacity="1"><g transform="translate(272.652448, 58.077975)"><g><path d="M 20.265625 -6.265625 C 21.015625 -6.265625 21.648438 -5.972656 22.171875 -5.390625 C 22.691406 -4.804688 22.953125 -4.054688 22.953125 -3.140625 C 22.953125 -2.210938 22.609375 -1.457031 21.921875 -0.875 C 21.234375 -0.289062 20.347656 0 19.265625 0 L 18.125 0 C 16.082031 0 14.210938 -0.53125 12.515625 -1.59375 C 10.816406 -2.664062 9.488281 -4.117188 8.53125 -5.953125 C 7.570312 -7.796875 7.09375 -9.867188 7.09375 -12.171875 L 7.09375 -27.671875 L 4.203125 -27.671875 C 3.328125 -27.671875 2.613281 -27.921875 2.0625 -28.421875 C 1.519531 -28.921875 1.25 -29.546875 1.25 -30.296875 C 1.25 -31.140625 1.519531 -31.8125 2.0625 -32.3125 C 2.613281 -32.8125 3.328125 -33.0625 4.203125 -33.0625 L 7.09375 -33.0625 L 7.09375 -42.09375 C 7.09375 -43.007812 7.382812 -43.757812 7.96875 -44.34375 C 8.550781 -44.9375 9.300781 -45.234375 10.21875 -45.234375 C 11.144531 -45.234375 11.898438 -44.9375 12.484375 -44.34375 C 13.066406 -43.757812 13.359375 -43.007812 13.359375 -42.09375 L 13.359375 -33.0625 L 18.6875 -33.0625 C 19.570312 -33.0625 20.285156 -32.8125 20.828125 -32.3125 C 21.367188 -31.8125 21.640625 -31.140625 21.640625 -30.296875 C 21.640625 -29.546875 21.367188 -28.921875 20.828125 -28.421875 C 20.285156 -27.921875 19.570312 -27.671875 18.6875 -27.671875 L 13.359375 -27.671875 L 13.359375 -12.171875 C 13.359375 -10.492188 13.816406 -9.085938 14.734375 -7.953125 C 15.660156 -6.828125 16.789062 -6.265625 18.125 -6.265625 Z M 20.265625 -6.265625 "/></g></g></g><g fill="#f02d36" fill-opacity="1"><g transform="translate(293.410338, 58.077975)"><g><path d="M 21.203125 0.25 C 17.859375 0.25 14.867188 -0.488281 12.234375 -1.96875 C 9.597656 -3.457031 7.546875 -5.519531 6.078125 -8.15625 C 4.617188 -10.789062 3.890625 -13.78125 3.890625 -17.125 C 3.890625 -20.507812 4.617188 -23.519531 6.078125 -26.15625 C 7.546875 -28.789062 9.597656 -30.847656 12.234375 -32.328125 C 14.867188 -33.816406 17.859375 -34.5625 21.203125 -34.5625 C 24.503906 -34.5625 27.460938 -33.816406 30.078125 -32.328125 C 32.691406 -30.847656 34.738281 -28.789062 36.21875 -26.15625 C 37.707031 -23.519531 38.453125 -20.507812 38.453125 -17.125 C 38.453125 -13.78125 37.71875 -10.789062 36.25 -8.15625 C 34.789062 -5.519531 32.753906 -3.457031 30.140625 -1.96875 C 27.523438 -0.488281 24.546875 0.25 21.203125 0.25 Z M 21.203125 -5.390625 C 23.335938 -5.390625 25.25 -5.890625 26.9375 -6.890625 C 28.632812 -7.898438 29.953125 -9.289062 30.890625 -11.0625 C 31.835938 -12.84375 32.3125 -14.863281 32.3125 -17.125 C 32.3125 -19.382812 31.835938 -21.410156 30.890625 -23.203125 C 29.953125 -25.003906 28.632812 -26.40625 26.9375 -27.40625 C 25.25 -28.414062 23.335938 -28.921875 21.203125 -28.921875 C 19.066406 -28.921875 17.148438 -28.414062 15.453125 -27.40625 C 13.765625 -26.40625 12.4375 -25.003906 11.46875 -23.203125 C 10.507812 -21.410156 10.03125 -19.382812 10.03125 -17.125 C 10.03125 -14.863281 10.507812 -12.84375 11.46875 -11.0625 C 12.4375 -9.289062 13.765625 -7.898438 15.453125 -6.890625 C 17.148438 -5.890625 19.066406 -5.390625 21.203125 -5.390625 Z M 21.203125 -5.390625 "/></g></g></g><g clip-path="url(#c2b1cb5d74)"><path fill="#f02d36" d="M 354.550781 13.96875 C 364.890625 13.96875 373.285156 22.367188 373.285156 32.703125 C 373.285156 43.988281 362.101562 52.867188 354.550781 59.796875 C 346.996094 52.859375 335.816406 43.988281 335.816406 32.703125 C 335.816406 22.367188 344.175781 13.96875 354.550781 13.96875 Z M 354.550781 19.203125 C 358.289062 19.203125 361.652344 20.734375 364.101562 23.179688 C 366.546875 25.59375 368.042969 28.992188 368.042969 32.703125 C 368.042969 36.445312 366.546875 39.808594 364.101562 42.253906 C 361.652344 44.703125 358.289062 46.234375 354.550781 46.234375 C 350.8125 46.234375 347.445312 44.703125 345 42.253906 C 342.550781 39.808594 341.058594 36.445312 341.058594 32.703125 C 341.058594 29 342.550781 25.601562 345 23.179688 C 347.445312 20.734375 350.8125 19.203125 354.550781 19.203125 Z M 355.871094 44.464844 L 355.871094 28.929688 L 353.222656 28.929688 L 353.222656 44.464844 C 353.660156 44.527344 354.101562 44.527344 354.550781 44.527344 C 354.988281 44.535156 355.429688 44.535156 355.871094 44.464844 Z M 357.539062 28.929688 L 357.539062 32.367188 L 362.304688 32.367188 L 362.304688 41.648438 C 362.503906 41.476562 362.714844 41.273438 362.917969 41.074219 C 365.0625 38.964844 366.382812 36.003906 366.382812 32.714844 C 366.382812 29.449219 365.054688 26.492188 362.917969 24.355469 C 360.78125 22.21875 357.8125 20.871094 354.550781 20.871094 C 351.289062 20.871094 348.328125 22.199219 346.191406 24.335938 C 344.054688 26.472656 342.726562 29.433594 342.726562 32.695312 C 342.726562 35.996094 344.054688 38.945312 346.191406 41.054688 C 346.464844 41.355469 346.769531 41.632812 347.070312 41.871094 L 347.070312 30.359375 L 351.5625 30.359375 L 351.5625 27.261719 L 357.539062 27.261719 Z M 357.539062 34.023438 L 357.539062 44.152344 C 358.628906 43.878906 359.683594 43.4375 360.636719 42.859375 L 360.636719 34.023438 Z M 348.730469 43.035156 C 349.609375 43.511719 350.535156 43.886719 351.554688 44.152344 L 351.554688 32.027344 L 348.730469 32.027344 Z M 354.550781 17.472656 C 362.980469 17.472656 369.78125 24.308594 369.78125 32.703125 C 369.78125 41.136719 362.980469 47.964844 354.550781 47.964844 C 346.117188 47.964844 339.316406 41.136719 339.316406 32.703125 C 339.316406 24.308594 346.117188 17.472656 354.550781 17.472656 Z M 354.550781 17.472656 " fill-opacity="1" fill-rule="nonzero"/></g><path fill="#ffffff" d="M 344.992188 42.253906 C 342.542969 39.808594 341.050781 36.445312 341.050781 32.703125 C 341.050781 29 342.542969 25.601562 344.992188 23.179688 C 347.4375 20.734375 350.800781 19.203125 354.539062 19.203125 C 358.28125 19.203125 361.644531 20.734375 364.089844 23.179688 C 366.539062 25.59375 368.03125 28.992188 368.03125 32.703125 C 368.03125 36.445312 366.539062 39.808594 364.089844 42.253906 C 361.644531 44.703125 358.289062 46.234375 354.550781 46.234375 C 350.8125 46.234375 347.445312 44.703125 344.992188 42.253906 Z M 369.773438 32.703125 C 369.773438 24.308594 362.972656 17.472656 354.539062 17.472656 C 346.109375 17.472656 339.316406 24.308594 339.316406 32.703125 C 339.316406 41.136719 346.117188 47.964844 354.550781 47.964844 C 362.980469 47.964844 369.773438 41.136719 369.773438 32.703125 Z M 369.773438 32.703125 " fill-opacity="1" fill-rule="nonzero"/><path fill="#ffffff" d="M 342.71875 32.703125 C 342.71875 36.003906 344.046875 38.957031 346.183594 41.0625 C 346.457031 41.367188 346.757812 41.640625 347.0625 41.878906 L 347.0625 30.359375 L 351.554688 30.359375 L 351.554688 27.261719 L 357.539062 27.261719 L 357.539062 32.367188 L 362.304688 32.367188 L 362.304688 41.648438 C 362.503906 41.476562 362.714844 41.273438 362.917969 41.074219 C 365.0625 38.964844 366.382812 36.003906 366.382812 32.714844 C 366.382812 29.449219 365.054688 26.492188 362.917969 24.355469 C 360.78125 22.21875 357.8125 20.871094 354.550781 20.871094 C 351.289062 20.871094 348.328125 22.199219 346.191406 24.335938 C 344.054688 26.472656 342.71875 29.441406 342.71875 32.703125 Z M 342.71875 32.703125 " fill-opacity="1" fill-rule="nonzero"/><path fill="#ffffff" d="M 348.730469 32.027344 L 348.730469 43.042969 C 349.609375 43.519531 350.535156 43.894531 351.554688 44.160156 L 351.554688 32.027344 Z M 348.730469 32.027344 " fill-opacity="1" fill-rule="nonzero"/><path fill="#ffffff" d="M 353.222656 28.929688 L 353.222656 44.464844 C 353.660156 44.527344 354.101562 44.527344 354.550781 44.527344 C 354.988281 44.527344 355.429688 44.527344 355.878906 44.464844 L 355.878906 28.929688 Z M 353.222656 28.929688 " fill-opacity="1" fill-rule="nonzero"/><path fill="#ffffff" d="M 357.539062 34.023438 L 357.539062 44.152344 C 358.628906 43.878906 359.683594 43.4375 360.636719 42.859375 L 360.636719 34.023438 Z M 357.539062 34.023438 " fill-opacity="1" fill-rule="nonzero"/></svg>